#N canvas 592 577 1265 630 10;
#N canvas 641 238 615 641 stopcontrol 0;
#X obj 116 126 tgl 50 0 empty empty 8' 10 20 0 25 -261682 -1 -1 0 1
;
#X obj 176 126 tgl 50 0 empty empty 4' 10 20 0 25 -261682 -1 -1 0 1
;
#X obj 236 126 tgl 50 0 empty empty L 10 20 0 25 -261682 -1 -1 0 1
;
#X obj 116 218 route 1 0;
#X msg 116 245 stopon 0;
#X msg 141 266 stopoff 0;
#X obj 176 298 route 1 0;
#X obj 236 378 route 1 0;
#X msg 176 325 stopon 1;
#X msg 201 346 stopoff 1;
#X msg 236 405 stopon 2;
#X msg 261 426 stopoff 2;
#X obj 116 29 unpack f f f;
#X msg 236 58 set \$1;
#X msg 176 58 set \$1;
#X msg 116 58 set \$1;
#X obj 116 468 outlet;
#X obj 116 1 inlet;
#X connect 0 0 3 0;
#X connect 1 0 6 0;
#X connect 2 0 7 0;
#X connect 3 0 4 0;
#X connect 3 1 5 0;
#X connect 4 0 16 0;
#X connect 5 0 16 0;
#X connect 6 0 8 0;
#X connect 6 1 9 0;
#X connect 7 0 10 0;
#X connect 7 1 11 0;
#X connect 8 0 16 0;
#X connect 9 0 16 0;
#X connect 10 0 16 0;
#X connect 11 0 16 0;
#X connect 12 0 15 0;
#X connect 12 1 14 0;
#X connect 12 2 13 0;
#X connect 13 0 2 0;
#X connect 14 0 1 0;
#X connect 15 0 0 0;
#X connect 17 0 12 0;
#X coords 0 -1 1 1 200 100 2 100 100;
#X restore 26 41 pd stopcontrol;
#X obj 223 458 print stoptrigger;
#X obj 329 132 unpack f f f;
#X obj 329 157 pack f f;
#X obj 330 44 notein;
#X obj 330 76 pack f f f;
#X obj 330 104 route 0;
#X obj 223 409 stoptrigger 3;
#X obj 223 381 r stopcontrol_set;
#X obj 298 434 s stopcontrol_display;
#N canvas 635 504 298 302 keyswitch_stoptrigger 0;
#X obj 40 40 inlet;
#X text 121 39 note/velocity;
#X obj 40 74 unpack f f;
#X obj 40 94 pack f f;
#X text 126 92 velocity/note;
#X obj 40 123 route 0;
#X obj 40 156 route 21 23 24;
#X text 125 124 pass left on note_off;
#X text 166 155 keyswitch;
#X msg 40 188 stoptoggle 0 \, stoplist;
#X obj 40 253 s stopcontrol_set;
#X msg 50 208 stoptoggle 1 \, stoplist;
#X msg 60 228 stoptoggle 2 \, stoplist;
#X connect 0 0 2 0;
#X connect 2 0 3 1;
#X connect 2 1 3 0;
#X connect 3 0 5 0;
#X connect 5 0 6 0;
#X connect 6 0 9 0;
#X connect 6 1 11 0;
#X connect 6 2 12 0;
#X connect 9 0 10 0;
#X connect 11 0 10 0;
#X connect 12 0 10 0;
#X restore 329 185 pd keyswitch_stoptrigger;
#X obj 26 146 s stopcontrol_set;
#X obj 26 11 r stopcontrol_display;
#X text 326 23 use bottom white keys to toggle stops;
#X text 217 310 stopcontrol triggers multiple outs depending on the
stops that are set \; input is note \, velocity \; output is (several)
note \, velocity depending on the set stops;
#X msg 156 374 23 100;
#X obj 663 337 sampleplayer~;
#X obj 725 63 bng 15 250 50 0 empty empty LOAD_INSTRUMENT 17 7 0 10
-258113 -1 -1;
#X obj 753 412 dac~;
#X msg 761 312 memoryusage;
#X msg 778 233 initialize;
#X obj 754 189 bng 15 250 50 0 empty empty empty 17 7 0 10 -262144
-1 -1;
#X msg 733 115 read blanchet.txt cr;
#X obj 733 154 textfile;
#X obj 680 117 delay 1;
#X msg 779 89 rewind;
#X obj 814 172 delay 100;
#X msg 624 205 2 34 100;
#X connect 0 0 11 0;
#X connect 2 0 3 0;
#X connect 2 1 3 1;
#X connect 3 0 10 0;
#X connect 4 0 5 0;
#X connect 4 1 5 1;
#X connect 4 2 5 2;
#X connect 5 0 6 0;
#X connect 6 1 2 0;
#X connect 7 0 1 0;
#X connect 7 1 9 0;
#X connect 8 0 7 0;
#X connect 12 0 0 0;
#X connect 15 0 7 0;
#X connect 16 0 18 0;
#X connect 16 1 18 1;
#X connect 17 0 22 0;
#X connect 17 0 24 0;
#X connect 17 0 25 0;
#X connect 19 0 16 0;
#X connect 20 0 16 0;
#X connect 21 0 23 0;
#X connect 22 0 23 0;
#X connect 23 0 21 0;
#X connect 23 0 16 0;
#X connect 23 1 26 0;
#X connect 24 0 23 0;
#X connect 25 0 23 0;
#X connect 26 0 20 0;
#X connect 27 0 16 0;
