#N canvas 540 22 658 799 10;
#N canvas 1094 388 615 641 stopcontrol 0;
#X obj 116 126 tgl 50 0 empty empty 8' 10 20 0 25 -261682 -1 -1 0 1
;
#X obj 176 126 tgl 50 0 empty empty 4' 10 20 0 25 -261682 -1 -1 0 1
;
#X obj 236 126 tgl 50 0 empty empty L 10 20 0 25 -261682 -1 -1 0 1
;
#X obj 116 218 route 1 0;
#X msg 116 245 stopon 0;
#X msg 141 266 stopoff 0;
#X obj 176 298 route 1 0;
#X obj 236 378 route 1 0;
#X msg 176 325 stopon 1;
#X msg 201 346 stopoff 1;
#X msg 236 405 stopon 2;
#X msg 261 426 stopoff 2;
#X obj 116 29 unpack f f f;
#X msg 236 58 set \$1;
#X msg 176 58 set \$1;
#X msg 116 58 set \$1;
#X obj 116 468 outlet;
#X obj 116 1 inlet;
#X connect 0 0 3 0;
#X connect 1 0 6 0;
#X connect 2 0 7 0;
#X connect 3 0 4 0;
#X connect 3 1 5 0;
#X connect 4 0 16 0;
#X connect 5 0 16 0;
#X connect 6 0 8 0;
#X connect 6 1 9 0;
#X connect 7 0 10 0;
#X connect 7 1 11 0;
#X connect 8 0 16 0;
#X connect 9 0 16 0;
#X connect 10 0 16 0;
#X connect 11 0 16 0;
#X connect 12 0 15 0;
#X connect 12 1 14 0;
#X connect 12 2 13 0;
#X connect 13 0 2 0;
#X connect 14 0 1 0;
#X connect 15 0 0 0;
#X connect 17 0 12 0;
#X coords 0 -1 1 1 200 100 2 100 100;
#X restore 26 41 pd stopcontrol;
#X obj 44 237 notein;
#X obj 277 368 stoptrigger 3;
#X obj 352 404 s stopcontrol_display;
#X obj 26 146 s stopcontrol_set;
#X obj 26 11 r stopcontrol_display;
#X obj 277 770 sampleplayer~;
#X obj 114 553 bng 15 250 50 0 empty empty LOAD_INSTRUMENT 17 7 0 10
-258113 -1 -1;
#X obj 277 802 dac~;
#X msg 293 727 memoryusage;
#X msg 121 706 initialize;
#X obj 97 653 bng 15 250 50 0 empty empty empty 17 7 0 10 -262144 -1
-1;
#X msg 122 605 read blanchet.txt cr;
#X obj 122 654 textfile;
#X obj 76 628 delay 1;
#X msg 168 579 rewind;
#X obj 121 681 delay 100;
#X obj 44 400 s stopcontrol_set;
#X text 167 310 handle notes;
#X obj 277 552 pack 0 0 0;
#X obj 44 291 route 21 23 24;
#X obj 44 264 pack f f;
#X obj 277 394 poly 64 0;
#X obj 277 333 r stopcontrol_set;
#X text 49 322 handle stops;
#X obj 114 524 loadbang;
#X obj 302 446 - 12;
#X obj 427 522 pack f f;
#X obj 427 548 route 0;
#X obj 427 576 + 128;
#X obj 121 730 print sampleplayer;
#X obj 427 669 + 64;
#X obj 427 722 pack f f f;
#X msg 427 609 \$1 128;
#X obj 524 537 vsl 15 128 0.1 10 1 1 empty empty release_intensity
0 -9 0 10 -204800 -1 -1 6200 1;
#X floatatom 524 673 5 0 0 0 - - -, f 5;
#X obj 455 693 - 12;
#X obj 484 671 *;
#X msg 188 356 clear;
#X msg 352 603 clear;
#X obj 427 644 poly 64 1;
#X obj 325 862 writesf~ 2;
#X msg 43 790 open recording.wav;
#X msg 43 815 start;
#X msg 43 841 stop;
#X obj 332 463 route 0;
#X obj 332 492 bng 15 250 50 0 empty empty empty 17 7 0 10 -262144
-1 -1;
#X obj 364 492 bng 15 250 50 0 empty empty empty 17 7 0 10 -262144
-1 -1;
#X msg 364 512 128;
#X msg 332 512 0;
#X obj 293 579 print tosp;
#N canvas 455 125 509 557 gpio_registers 1;
#X obj 24 28 unpack f f f;
#X floatatom 61 77 5 0 0 0 - - -, f 5;
#X floatatom 24 77 5 0 0 0 - - -, f 5;
#X floatatom 98 77 5 0 0 0 - - -, f 5;
#X msg 49 153 stopon 0 \, stoplist;
#X obj 24 105 route 0 1;
#X msg 24 131 stopoff 0 \, stoplist;
#X obj 149 105 route 0 1;
#X msg 149 131 stopoff 1 \, stoplist;
#X msg 174 153 stopon 1 \, stoplist;
#X obj 276 105 route 0 1;
#X msg 276 131 stopoff 2 \, stoplist;
#X msg 301 153 stopon 2 \, stoplist;
#X obj 24 205 outlet;
#X obj 24 4 mraagpio;
#X connect 0 0 2 0;
#X connect 0 1 1 0;
#X connect 0 2 3 0;
#X connect 1 0 7 0;
#X connect 2 0 5 0;
#X connect 3 0 10 0;
#X connect 4 0 13 0;
#X connect 5 0 6 0;
#X connect 5 1 4 0;
#X connect 6 0 13 0;
#X connect 7 0 8 0;
#X connect 7 1 9 0;
#X connect 8 0 13 0;
#X connect 9 0 13 0;
#X connect 10 0 11 0;
#X connect 10 1 12 0;
#X connect 11 0 13 0;
#X connect 12 0 13 0;
#X connect 14 0 0 0;
#X coords 0 -1 1 1 125 45 1 20 50;
#X restore 237 96 pd gpio_registers;
#N canvas 1280 23 395 280 midi_registers 0;
#X obj 43 232 outlet;
#X obj 48 65 inlet;
#X obj 88 65 inlet;
#X obj 128 65 inlet;
#X msg 94 150 stoptoggle 1 \, stoplist;
#X msg 131 173 stoptoggle 2 \, stoplist;
#X obj 49 98 route 0;
#X obj 103 98 route 0;
#X obj 156 98 route 0;
#X msg 49 128 stoptoggle 0 \, stoplist;
#X text 217 98 route on note off;
#X connect 1 0 6 0;
#X connect 2 0 7 0;
#X connect 3 0 8 0;
#X connect 4 0 0 0;
#X connect 5 0 0 0;
#X connect 6 0 9 0;
#X connect 7 0 4 0;
#X connect 8 0 5 0;
#X connect 9 0 0 0;
#X restore 44 380 pd midi_registers;
#X connect 0 0 4 0;
#X connect 1 0 21 0;
#X connect 1 1 21 1;
#X connect 2 0 22 0;
#X connect 2 1 3 0;
#X connect 5 0 0 0;
#X connect 6 0 8 0;
#X connect 6 0 41 0;
#X connect 6 1 8 1;
#X connect 6 1 41 1;
#X connect 7 0 12 0;
#X connect 7 0 14 0;
#X connect 7 0 15 0;
#X connect 9 0 6 0;
#X connect 10 0 6 0;
#X connect 10 0 30 0;
#X connect 11 0 13 0;
#X connect 12 0 13 0;
#X connect 13 0 11 0;
#X connect 13 0 6 0;
#X connect 13 1 16 0;
#X connect 14 0 13 0;
#X connect 15 0 13 0;
#X connect 16 0 10 0;
#X connect 19 0 6 0;
#X connect 19 0 50 0;
#X connect 20 0 52 0;
#X connect 20 1 52 1;
#X connect 20 2 52 2;
#X connect 20 3 2 0;
#X connect 21 0 20 0;
#X connect 22 0 19 0;
#X connect 22 1 26 0;
#X connect 22 1 27 1;
#X connect 22 2 27 0;
#X connect 22 2 45 0;
#X connect 23 0 2 0;
#X connect 25 0 7 0;
#X connect 26 0 19 1;
#X connect 27 0 28 0;
#X connect 28 0 29 0;
#X connect 29 0 33 0;
#X connect 31 0 32 0;
#X connect 32 0 6 0;
#X connect 33 0 40 0;
#X connect 34 0 35 0;
#X connect 34 0 37 1;
#X connect 36 0 32 1;
#X connect 37 0 32 2;
#X connect 38 0 22 0;
#X connect 39 0 40 0;
#X connect 40 0 31 0;
#X connect 40 1 36 0;
#X connect 40 2 37 0;
#X connect 42 0 41 0;
#X connect 43 0 41 0;
#X connect 44 0 41 0;
#X connect 45 0 46 0;
#X connect 45 1 47 0;
#X connect 46 0 49 0;
#X connect 47 0 48 0;
#X connect 48 0 19 2;
#X connect 49 0 19 2;
#X connect 51 0 4 0;
#X connect 52 0 17 0;
