#N canvas 135 212 605 589 10;
#N canvas 767 72 860 414 loadsamples 1;
#X obj 69 207 textfile;
#X msg 71 132 rewind;
#X msg 88 107 read hs_samples_def.txt cr;
#X obj 19 132 metro 5;
#X msg 19 105 stop;
#X obj 41 69 t b b b;
#X obj 69 234 outlet;
#X obj 408 48 inlet;
#X text 455 48 bang to load;
#X text 36 36 old stuff;
#X connect 0 0 6 0;
#X connect 0 1 4 0;
#X connect 1 0 0 0;
#X connect 2 0 0 0;
#X connect 3 0 0 0;
#X connect 4 0 3 0;
#X connect 5 0 3 0;
#X connect 5 1 1 0;
#X connect 5 2 2 0;
#X restore 24 243 pd loadsamples;
#N canvas 641 238 615 641 stopcontrol 0;
#X obj 116 126 tgl 50 0 empty empty 8' 10 20 0 25 -261682 -1 -1 0 1
;
#X obj 176 126 tgl 50 0 empty empty 4' 10 20 0 25 -261682 -1 -1 1 1
;
#X obj 236 126 tgl 50 0 empty empty L 10 20 0 25 -261682 -1 -1 1 1
;
#X obj 116 218 route 1 0;
#X msg 116 245 stopon 0;
#X msg 141 266 stopoff 0;
#X obj 176 298 route 1 0;
#X obj 236 378 route 1 0;
#X msg 176 325 stopon 1;
#X msg 201 346 stopoff 1;
#X msg 236 405 stopon 2;
#X msg 261 426 stopoff 2;
#X obj 116 29 unpack f f f;
#X msg 236 58 set \$1;
#X msg 176 58 set \$1;
#X msg 116 58 set \$1;
#X obj 116 468 outlet;
#X obj 116 1 inlet;
#X connect 0 0 3 0;
#X connect 1 0 6 0;
#X connect 2 0 7 0;
#X connect 3 0 4 0;
#X connect 3 1 5 0;
#X connect 4 0 16 0;
#X connect 5 0 16 0;
#X connect 6 0 8 0;
#X connect 6 1 9 0;
#X connect 7 0 10 0;
#X connect 7 1 11 0;
#X connect 8 0 16 0;
#X connect 9 0 16 0;
#X connect 10 0 16 0;
#X connect 11 0 16 0;
#X connect 12 0 15 0;
#X connect 12 1 14 0;
#X connect 12 2 13 0;
#X connect 13 0 2 0;
#X connect 14 0 1 0;
#X connect 15 0 0 0;
#X connect 17 0 12 0;
#X coords 0 -1 1 1 200 100 2 100 100;
#X restore 26 41 pd stopcontrol;
#X obj 223 458 print stoptrigger;
#X obj 329 132 unpack f f f;
#X obj 329 157 pack f f;
#X obj 330 44 notein;
#X obj 330 76 pack f f f;
#X obj 330 104 route 0;
#X obj 223 409 stoptrigger 3;
#X obj 223 381 r stopcontrol_set;
#X obj 298 434 s stopcontrol_display;
#N canvas 635 504 298 302 keyswitch_stoptrigger 0;
#X obj 40 40 inlet;
#X text 121 39 note/velocity;
#X obj 40 74 unpack f f;
#X obj 40 94 pack f f;
#X text 126 92 velocity/note;
#X obj 40 123 route 0;
#X obj 40 156 route 21 23 24;
#X text 125 124 pass left on note_off;
#X text 166 155 keyswitch;
#X msg 40 188 stoptoggle 0 \, stoplist;
#X obj 40 253 s stopcontrol_set;
#X msg 50 208 stoptoggle 1 \, stoplist;
#X msg 60 228 stoptoggle 2 \, stoplist;
#X connect 0 0 2 0;
#X connect 2 0 3 1;
#X connect 2 1 3 0;
#X connect 3 0 5 0;
#X connect 5 0 6 0;
#X connect 6 0 9 0;
#X connect 6 1 11 0;
#X connect 6 2 12 0;
#X connect 9 0 10 0;
#X connect 11 0 10 0;
#X connect 12 0 10 0;
#X restore 329 185 pd keyswitch_stoptrigger;
#X obj 26 146 s stopcontrol_set;
#X obj 26 11 r stopcontrol_display;
#X text 326 23 use bottom white keys to toggle stops;
#X text 217 330 stopcontrol triggers multiple outs depending on the
stops that are set \; input is note \, velocity \; output is (several)
note \, velocity depending on the set stops;
#X msg 156 374 23 100;
#X msg 24 219 blanchet;
#X connect 1 0 12 0;
#X connect 3 0 4 0;
#X connect 3 1 4 1;
#X connect 4 0 11 0;
#X connect 5 0 6 0;
#X connect 5 1 6 1;
#X connect 5 2 6 2;
#X connect 6 0 7 0;
#X connect 7 1 3 0;
#X connect 8 0 2 0;
#X connect 8 1 10 0;
#X connect 9 0 8 0;
#X connect 13 0 1 0;
#X connect 16 0 8 0;
#X connect 17 0 0 0;
