#N canvas 598 315 1331 954 10;
#N canvas 641 238 615 641 stopcontrol 0;
#X obj 116 126 tgl 50 0 empty empty 8' 10 20 0 25 -261682 -1 -1 1 1
;
#X obj 176 126 tgl 50 0 empty empty 4' 10 20 0 25 -261682 -1 -1 1 1
;
#X obj 236 126 tgl 50 0 empty empty L 10 20 0 25 -261682 -1 -1 0 1
;
#X obj 116 218 route 1 0;
#X msg 116 245 stopon 0;
#X msg 141 266 stopoff 0;
#X obj 176 298 route 1 0;
#X obj 236 378 route 1 0;
#X msg 176 325 stopon 1;
#X msg 201 346 stopoff 1;
#X msg 236 405 stopon 2;
#X msg 261 426 stopoff 2;
#X obj 116 29 unpack f f f;
#X msg 236 58 set \$1;
#X msg 176 58 set \$1;
#X msg 116 58 set \$1;
#X obj 116 468 outlet;
#X obj 116 1 inlet;
#X connect 0 0 3 0;
#X connect 1 0 6 0;
#X connect 2 0 7 0;
#X connect 3 0 4 0;
#X connect 3 1 5 0;
#X connect 4 0 16 0;
#X connect 5 0 16 0;
#X connect 6 0 8 0;
#X connect 6 1 9 0;
#X connect 7 0 10 0;
#X connect 7 1 11 0;
#X connect 8 0 16 0;
#X connect 9 0 16 0;
#X connect 10 0 16 0;
#X connect 11 0 16 0;
#X connect 12 0 15 0;
#X connect 12 1 14 0;
#X connect 12 2 13 0;
#X connect 13 0 2 0;
#X connect 14 0 1 0;
#X connect 15 0 0 0;
#X connect 17 0 12 0;
#X coords 0 -1 1 1 200 100 2 100 100;
#X restore 26 41 pd stopcontrol;
#X obj 44 237 notein;
#X obj 277 368 stoptrigger 3;
#X obj 372 463 s stopcontrol_display;
#X obj 26 146 s stopcontrol_set;
#X obj 26 11 r stopcontrol_display;
#X obj 277 480 sampleplayer~;
#X obj 499 233 bng 15 250 50 0 empty empty LOAD_INSTRUMENT 17 7 0 10
-258113 -1 -1;
#X obj 277 512 dac~;
#X msg 388 439 memoryusage;
#X msg 506 386 initialize;
#X obj 482 333 bng 15 250 50 0 empty empty empty 17 7 0 10 -262144
-1 -1;
#X msg 507 285 read blanchet.txt cr;
#X obj 507 334 textfile;
#X obj 461 308 delay 1;
#X msg 553 259 rewind;
#X obj 506 361 delay 100;
#X obj 44 491 s stopcontrol_set;
#X msg 89 430 stoptoggle 1 \, stoplist;
#X msg 126 453 stoptoggle 2 \, stoplist;
#X text 356 351 handle notes;
#X obj 277 452 pack 0 0 0;
#X obj 44 351 route 21 23 24;
#X obj 44 324 pack f f;
#X obj 44 378 route 0;
#X obj 277 394 poly 64 0;
#X obj 277 333 r stopcontrol_set;
#X obj 98 378 route 0;
#X obj 151 378 route 0;
#X text 139 350 handle stops;
#X msg 44 408 stoptoggle 0 \, stoplist;
#X obj 499 204 loadbang;
#X obj 494 431 print sampleplayer:;
#X obj 302 423 - 12;
#X connect 0 0 4 0;
#X connect 1 0 23 0;
#X connect 1 1 23 1;
#X connect 2 0 25 0;
#X connect 2 1 3 0;
#X connect 5 0 0 0;
#X connect 6 0 8 0;
#X connect 6 1 8 1;
#X connect 7 0 12 0;
#X connect 7 0 14 0;
#X connect 7 0 15 0;
#X connect 9 0 6 0;
#X connect 10 0 6 0;
#X connect 10 0 32 0;
#X connect 11 0 13 0;
#X connect 12 0 13 0;
#X connect 13 0 11 0;
#X connect 13 0 6 0;
#X connect 13 1 16 0;
#X connect 14 0 13 0;
#X connect 15 0 13 0;
#X connect 16 0 10 0;
#X connect 18 0 17 0;
#X connect 19 0 17 0;
#X connect 21 0 6 0;
#X connect 22 0 24 0;
#X connect 22 1 27 0;
#X connect 22 2 28 0;
#X connect 22 3 2 0;
#X connect 23 0 22 0;
#X connect 24 0 30 0;
#X connect 25 0 21 0;
#X connect 25 1 33 0;
#X connect 25 2 21 2;
#X connect 26 0 2 0;
#X connect 27 0 18 0;
#X connect 28 0 19 0;
#X connect 30 0 17 0;
#X connect 31 0 7 0;
#X connect 33 0 21 1;
