#N canvas 1326 765 516 469 10;
#X obj 171 306 print;
#X msg 215 262 hello;
#X obj 215 231 r fufi;
#X obj 391 230 bng 15 250 50 0 empty empty empty 17 7 0 10 -262144
-1 -1;
#X obj 391 250 s fufi;
#X obj 276 307 s gnappo;
#X obj 48 235 osc~;
#X obj 36 26 notein;
#X floatatom 51 75 5 0 0 0 - - -, f 5;
#X floatatom 36 48 5 0 0 0 - - -, f 5;
#X floatatom 93 67 5 0 0 0 - - -, f 5;
#X obj 144 150 sig~;
#X obj 48 155 mtof;
#X obj 48 177 sig~;
#X obj 53 314 *~;
#X obj 55 353 /~ 128;
#X obj 55 375 dac~;
#X obj 258 87 mraagpio;
#X connect 1 0 0 0;
#X connect 1 0 5 0;
#X connect 2 0 1 0;
#X connect 3 0 4 0;
#X connect 6 0 14 0;
#X connect 7 0 9 0;
#X connect 7 1 8 0;
#X connect 7 2 10 0;
#X connect 8 0 11 0;
#X connect 9 0 12 0;
#X connect 11 0 14 1;
#X connect 12 0 13 0;
#X connect 13 0 6 0;
#X connect 14 0 15 0;
#X connect 15 0 16 0;
#X connect 15 0 16 1;
